<svg version="1" xmlns="http://www.w3.org/2000/svg" width="814.667" height="814.667" viewBox="0 0 611.000000 611.000000"><path d="M289.5 101.7c-4.7.9-11.2 2.7-13.6 3.9-1.5.7-3.9 1.5-5.4 1.8-6.7 1.2-19.9 9.1-27.4 16.3-4.1 4-7.8 7.3-8.1 7.4-.9.1-11.3 14.8-14 19.8-7.5 13.6-9.2 21.2-9.3 40.6-.1 18.2 1.5 26.9 6.8 37.8 2.5 5.3 5.2 10.1 6 10.7.8.7 1.5 1.8 1.5 2.4 0 1.2 6.6 9.3 11.9 14.4 9.6 9.4 29.2 21.2 35.3 21.2 1.5 0 4.7.7 7.1 1.5 7.8 2.6 26.1 3.8 33.7 2.1.8-.1 3.3-.6 5.5-1 4.1-.7 5.6-1.3 18-6.2 6.7-2.7 19.2-10.6 24.5-15.6 1.3-1.2 2.8-2.2 3.2-2.1.5.2.8-.4.8-1.2 0-.9.7-1.8 1.5-2.1.8-.4 3.4-3.6 5.8-7.3 5.5-8.2 15.1-26.5 13.6-25.6-.7.5-.6-.1.2-1.6.7-1.3 1.4-2.6 1.4-2.9.8-4.2 1.8-12.6 2-16.6.1-2.9.5-5.7.9-6.3.4-.6.4-1.1-.1-1.1-.4 0-.8-2.1-.9-4.7 0-2.7-.3-6.2-.7-7.8-.4-1.7-1-5-1.3-7.3-.2-2.4-1.1-5.6-1.9-7.2-.8-1.5-1.1-3-.8-3.4.4-.3.1-.6-.5-.6s-1.6-1-2.2-2.3c-1-2-1-2 .3-.5.8 1 1.8 1.8 2.3 1.8.4 0 .3-.5-.4-1.2s-1.2-2-1.2-3-.4-1.8-.8-1.8c-.5 0-2.1-2.4-3.6-5.3-3.7-7.2-4.8-8.9-6.7-10.7-.9-.8-1.9-2.8-2.3-4.3-.6-2.5-.9-2.7-2.3-1.5-1 .8-1.4.8-1 .1.8-1.2-4.4-6.5-11.8-12.2-2.2-1.7-4.7-3.6-5.5-4.3-.8-.7-2.7-1.8-4.2-2.5s-2.8-1.6-2.8-2.2c0-1.6-5.6-3.1-7-1.8-1 .9-1.1.9-.6 0 .4-.7-1.2-1.7-4.6-2.8-2.9-.9-6-1.9-6.8-2.2-.8-.4-1.9-.5-2.4-.4-.5.1-3.2-.3-6-.8-5.3-1.1-22.7-2-26.1-1.4zm20 5.6c1.1.3 5.3.8 9.4 1.2 7.9.8 22.4 6.6 26.8 10.7 1.2 1.1 2.6 1.7 3.2 1.3.6-.3 1.1-.3 1.1.2 0 .4 1.7 1.9 3.8 3.2 11.7 7.7 23.5 24.6 27.8 40.1.9 3.6 2.3 7.4 3 8.5.7 1.1 1.2 3.1 1.2 4.5s.5 5.3 1 8.8c1.5 10.4.4 17-5.6 34.2-4.9 13.8-11.1 23.8-20.7 33-2.6 2.5-5.7 5.5-7 6.7-1.2 1.3-2.5 2.3-2.8 2.3-.3 0-3 1.4-5.8 3.1-2.9 1.7-7.8 4-10.8 5.1-3.1 1.2-6.6 2.7-7.7 3.5-2.3 1.4-2.9 1.6-10.9 2.8-7 1-25.2.7-27.4-.4-1-.6-2.1-.7-2.5-.4-.6.6-4.4-.3-14-3.4-6.3-2.1-21-10.7-25.6-15-1.9-1.8-3.8-3.3-4.2-3.3-.4 0-1.8-1.6-3.1-3.5s-3.9-5.2-5.8-7.3c-4-4.3-9.9-13.6-9.9-15.5 0-.8-.3-1.7-.7-2.1-.4-.4-.9-1.9-1.1-3.4-.2-1.5-.7-2.9-1.1-3.2-.8-.5-2-4.5-2.5-8.5-.2-1.1-.8-3.8-1.4-6-.6-2.2-1-5.2-.8-6.8.2-1.5-.1-2.7-.6-2.7s-.7-.8-.4-1.8c.3-.9.6-4.9.7-8.7.1-3.9.8-8.5 1.5-10.4.8-1.8 1.4-4.6 1.4-6.2 0-1.6.5-2.9 1-2.9.6 0 .8-1 .4-2.4-.3-1.4-.1-2.7.7-3.1.8-.5 1-.4.5.3-.4.7-.2 1.2.3 1.2.6 0 1.1-.9 1.1-2s.5-2 1-2c.6 0 1-.9 1-2 0-2.4 2.1-7 3.2-7 .5 0 1.3-1.1 1.8-2.5s1.4-2.5 2-2.5c.5 0 1-.9 1-2 0-1.2 1-2.5 2.5-3.2 1.4-.6 3.3-2.5 4.4-4.3 1.7-3 13.1-12.5 15-12.5.4 0 1.6-.8 2.5-1.9.9-1 3.1-2.2 4.8-2.5 1.8-.3 3.9-1.3 4.7-2 2.2-1.9 12.3-5.4 14-4.8.8.3 1.1 0 .7-.7-.5-.7.4-1.1 2.6-1.2 1.8-.1 4.4-.4 5.8-.8 2.6-.8 17.1-.6 20.5.2zM238 132.4c0 .3-.4.8-1 1.1-.5.3-1 .1-1-.4 0-.6.5-1.1 1-1.1.6 0 1 .2 1 .4z"/><path d="M327.6 134.2c-.3.7-.7 3.9-1 7-.3 3.1-1.7 9.2-3.1 13.5-3.5 11.2-8.6 28.3-9 30.2-.2.9-3.3 11.5-6.9 23.6-7.2 23.9-9.4 33.4-9.1 38 .1 1.6.3 3.9.3 5.1.2 2.6 5.9 8.7 7.5 8.1.7-.2 1.5-2.6 1.8-5.3.9-6.8 2.6-13.1 14.5-52.8 12.2-40.6 13.3-44.4 14-51 .8-7-.2-11.1-3.7-14.6-3.3-3.2-4.7-3.7-5.3-1.8zM291.2 153c-2.3 1.6-10.5 7.3-18.3 12.5-26 17.5-29.9 21.7-26.4 28.5 2.2 4.3 11 14.6 23 27 5.5 5.8 11.6 12.4 13.4 14.7 2.7 3.6 3.6 4.1 5.2 3.3 4.3-2.4 5.6-8.1 2.8-13.4-2.9-5.6-5.1-8.1-21-24.2L256 187.3l10.2-6.9c5.7-3.8 10.5-7.1 10.8-7.4.3-.3 3.2-2.5 6.5-5 5.1-3.8 11.5-9.5 11.5-10.3 0-.1.4-1.7.9-3.4 1.3-4.5.1-4.8-4.7-1.3zM263 317.1c-2.5.5-8.7 2.9-13.9 5.5-18.8 9.3-32.3 27.1-30.5 40.5 1.3 10.4 9.8 16.4 24.7 17.4 16.9 1.2 18.9 1.5 21.4 2.7 6.4 3.1 4 11.4-6.1 20.3-14 12.6-35 19-41.7 12.9-2.8-2.5-2.4-4.5 2.1-11.2 4-5.9 4.4-9.2 1.3-9.2-1.9 0-5.7 4.2-8.3 9-2.2 4.2-8.7 10.5-11.6 11.4-3.1.9-5.4-1.8-5.4-6.4 0-2.1-.3-4.7-.6-5.7-.5-1.5-.4-1.6.6-.3.9 1.2 1.1 1 .7-1.3-.2-1.5 0-2.7.4-2.7.5 0 .9-.6.9-1.4 0-.8 1.3-4.3 2.9-7.8 3.4-7.3 4.6-11.5 4.2-14.3-1.3-9.4-12.8-9.7-22-.7-2.6 2.6-5.6 6-6.8 7.6-1.5 2.2-2.2 2.6-2.8 1.6-.6-.9-.4-1.1.5-.5.9.6 1 .1.5-1.6-.4-1.6-.3-2 .3-1.1.7 1 1.2.5 2.2-1.9 2.5-6.1 1-9.4-4.6-10.5-4.1-.8-8 1.4-9.5 5.4-1 2.5-4.9 17.2-6.3 23.5-1.4 6-16.1 17.1-24.1 18.1-3.2.4-4.2 0-6.6-2.4-2.4-2.3-2.9-3.7-2.9-7.4 0-3.9.3-4.6 2-4.6 3.2 0 13-4.8 17.6-8.5 6.1-5 8.6-8.9 8.7-13.5.2-8.7-9.6-13.2-20.5-9.3-5.3 1.9-15.8 10.8-15.8 13.5 0 .7 1 .2 2.1-1.2l2.1-2.5-1.5 2.5c-.8 1.4-2 2.4-2.7 2.2-1.2-.2-4.3 6.3-5.6 11.8-4.5 19.3 9.1 31 28.4 24.6 5.2-1.8 12.4-6.4 15.3-10 1.6-1.9 1.6-1.8 2.3 2.8.8 5.4 3.5 8.6 7 8.6 3.4 0 4.3-1.7 5-9.2.9-8.7 6.7-19.9 14.2-27.2 5.1-4.9 6-3.5 3.7 5.2-2.6 9.2-2.9 20.1-.8 24.5 3.2 6.9 12.3 8.8 20.8 4.2l4.7-2.4 1.4 3.2c1.9 4.5 4.8 6.8 10.6 8.3 5.6 1.5 16.2 1.1 21.8-.7 20.3-6.6 33.7-22.9 33.5-40.8-.1-7.6-3.7-9.4-24-12.5-11.1-1.7-17.9-4.5-19.2-7.8-4-10.9 16.9-33.3 35.8-38.3 13-3.4 21.7 2.8 17 12.2-3.4 7-11.4 9-16.4 4.3-2.7-2.5-4.5-2-4.5 1.3 0 4.2 8.1 7.1 15.1 5.6 10.2-2.3 15.8-11.5 12.8-20.7-3.5-10.5-17.3-17.4-29.9-15.1zm-27 20.3c0 .2-.8 1-1.7 1.7-1.6 1.3-1.7 1.2-.4-.4 1.3-1.6 2.1-2.1 2.1-1.3zm-114 40c0 .2-.8 1-1.7 1.7-1.6 1.3-1.7 1.2-.4-.4 1.3-1.6 2.1-2.1 2.1-1.3zm23.6 1.6c.1 2.6-2.4 6.6-5.9 9.7-3.7 3.2-14.2 8.6-15.7 8.1-1.4-.5 1.8-6.3 5.7-10.3 7.9-8.1 15.7-11.8 15.9-7.5zm20.6 18.2c-.8.8-.9.4-.5-1.3.4-1.3.8-1.8 1.1-1 .2.7-.1 1.8-.6 2.3zM318.5 317.4c-10.7 4.7-25.5 36.8-31.9 69.1-3.9 19.7-1.9 34.2 4.7 32.9 4.1-.7 5.2-3 5.6-11.5l.3-8.1 2.8 4.9c3.6 6.3 14.4 16.9 21.5 21.2 6.8 4.1 14.1 5.1 19.7 2.8 4.5-1.9 7.7-6.2 5.9-8-1-.9-1.7-.6-3.3 1.5-1.4 2-2.9 2.8-4.9 2.8-4.7 0-13.3-4.6-18.9-10.1-4.9-4.9-11.6-13.7-10.8-14.4.1-.1 2.4-.5 5-.8 14.6-1.8 25.3-13 23.3-24.6-.8-4.4-2.1-6.4-6-8.3-5.7-2.9-15.4-.2-22.5 6.4-2 1.8-4.5 4.1-5.6 5.1-2.1 1.7-2.1 1.7-1.1-1.6.8-2.3 2.5-4.3 5.3-6.1 13.7-8.6 25.7-39.4 19.9-50.6-.9-1.7-2-3-2.4-3-.5 0-1.5-.2-2.3-.5-.7-.2-2.6.2-4.3.9zm4.9 15.3c-.3 1.6-1.4 5.6-2.5 8.9-1.7 5.3-3.6 8.9-10.8 20.4-.5.8-1.2 1.2-1.6.9-.5-.6 6.8-18.2 12.1-29.2 2.1-4.4 3.5-4.8 2.8-1zm-23.3 19.7c-1.4 3.6-2.2 3.3-.9-.5.6-1.6 1.2-2.8 1.4-2.6.3.2 0 1.6-.5 3.1zm26.9 24.1c0 5.7-15.5 16.1-23.2 15.6-2.3-.1-1.4-2.4 3.1-8.2 4.4-5.7 8.4-8.9 12.9-10.5 4.5-1.5 7.2-.3 7.2 3.1zm4 13.9c0 .2-.8 1-1.7 1.7-1.6 1.3-1.7 1.2-.4-.4 1.3-1.6 2.1-2.1 2.1-1.3z"/><path d="M418.4 317.9c-4.1 2.5-8 7.3-12.9 16.3-2.6 4.7-4.8 7.4-6 7.6-4.4.7-7.3 2.4-7 4 .2.9.4 2.1.4 2.6.1.4 1.4.6 3 .4l2.8-.4-2.9 7.9c-3.6 9.8-7.4 24.4-8.3 31.7-1 8.2-2.7 11.4-8.6 16-8.9 7.1-15.8 9.8-20.4 8-4.5-1.7-7.5-12.4-3.7-13.6 14.9-4.7 27.2-14.8 27.2-22.3 0-3.7-2.2-6.8-6.2-9.1-3.2-1.8-4.9-2.1-9.3-1.6-13.9 1.5-26.1 16.1-27.3 32.7-1 14.2 5.3 20.9 19.7 20.9 8 0 16.2-3.5 23-9.9 2.4-2.2 4.5-4 4.6-3.9 0 .2.7 2.1 1.4 4.3 1.6 4.7 6.5 9.4 10.1 9.6 9.8.6 15.7-1.7 21.8-8.2l3.8-4 1.7 3.6c.9 1.9 2.2 3.5 2.7 3.5.6 0 .9.4.5.9-.3.5 1.4 2.1 3.7 3.5 3.5 2.1 5.3 2.5 10.8 2.3 7.7-.3 13.8-2.9 19.9-8.6l4.1-3.8v2.7c0 3.7 3.5 8 6.5 8 3.1 0 3.6-1 4.1-8.2.9-11.7 9.5-27.8 17.1-31.7 3.8-1.9 4.3 1 1.6 10.2-4.1 13.8-3.2 24.6 2.3 28.2 8.9 5.8 23.9-1.7 30.9-15.5 3-5.9 3.1-7 .6-7-1.2 0-2.9 1.6-4.5 4.4-5.7 9.8-13.5 15.5-17.1 12.6-3.2-2.6-1.3-13.7 4.5-26.9 4.8-11 3.1-17.2-5.3-19-4.7-1.1-10.1 1.3-16.7 7.5-2.7 2.6-5 4.4-5 4.1 0-1.9 2.6-5.7 4.2-6.3 1-.3 3.7-2.4 6-4.7 9.5-9.8 16.9-34.9 12.9-44.4-1.5-3.7-5.1-5.8-8.4-4.9-5.8 1.4-9.3 6.1-16 21.6-4.9 11.2-14.7 43.6-16.1 53.1-.8 5.2-1.6 6.9-5.3 11.5-7.1 8.8-15.8 12.6-21.3 9.3-4-2.5-5.3-6.1-4.6-12.6 1.2-10.7 9.1-22.9 17.2-26.8 8.7-4.1 8.8 3.7.2 11.7-6.4 6-1.9 8.4 4.8 2.6 6.7-5.9 8.2-13.5 3.8-18.7-3-3.5-7.2-5-12.9-4.4-13 1.4-24 12.5-26.6 27.1-1.2 6.6-7 14.9-13.2 19-3.1 2.1-4.1 2.3-6.2 1.4-1.3-.6-3.1-2.4-3.9-4.1-2.2-4.1-1.5-18.5 1.3-27.8 1.8-6 2.7-7.5 5.6-9.3 5.3-3.3 12.2-11.6 15.8-19.1l3.4-6.9 19.4.5c10.7.2 20.9.7 22.8 1 1.8.4 4.4.4 5.7.1 3.3-.9 3.2-4.2-.1-5-3.9-1-19.7-1.9-33.6-2l-12.6-.1.9-4c3-12.9-2.9-22.4-10.8-17.6zm5.6 15.2c0 4.1-1.6 6.9-4 6.9-2.6 0-2.5-1.3.2-6.1 2.6-4.7 3.8-4.9 3.8-.8zm80.5 1.6c-1.6 9.6-6.8 21.9-11.5 27.4l-3 3.4 2.6-7c8.3-23.1 13.5-33.5 11.9-23.8zm-87.5 17c-4.1 7.2-7.9 12.3-9.2 12.3-.7 0-.7-.4-.1-1.3.6-.6 2-3.8 3.2-7.1 3.2-8.6 3.9-9.6 6.7-9.6h2.6l-3.2 5.7zm-15.7-2.2c-.3.9-.8 1.4-1 1.1-.3-.3-.2-.9.2-1.5.9-1.6 1.5-1.3.8.4zm-2.2 5.2c-1.2 2-1.4 1.4-.5-1.2.4-.9.9-1.4 1.1-1.1.3.2 0 1.3-.6 2.3zm82.9 2c-1.1 1.7-1.1 1.7-.6 0 .3-1 .6-2.4.7-3 0-.9.2-.9.5 0 .3.7 0 2-.6 3zm-85.4 4.7c-2.1 4.9-2.8 4.6-.9-.4.9-2.2 1.8-3.8 2-3.6.2.2-.3 2-1.1 4zm-2.5 6.9c-1 .9-1.1.8-.5-.6.3-1 .9-1.5 1.2-1.2.3.3 0 1.1-.7 1.8zm-41.1 5.1c0 .2-.8 1-1.7 1.7-1.6 1.3-1.7 1.2-.4-.4 1.3-1.6 2.1-2.1 2.1-1.3zm24 1c0 2.8-1.9 6.4-4.7 9-3.5 3.4-11.9 8.2-15.7 9.2l-3 .7 2.4-3.9c3-5 7.5-9.9 12.4-13.5 4.2-3.1 8.6-3.8 8.6-1.5zm-29.6 5.6c-1 1.6-2 2.8-2.2 2.6-.4-.5 2.8-5.6 3.5-5.6.2 0-.4 1.3-1.3 3zm90.7 1.3c-1 .9-1.1.8-.5-.6.3-1 .9-1.5 1.2-1.2.3.3 0 1.1-.7 1.8zM109.1 319.4c-.6.8-4.2 1.7-7.9 2.1-12.8 1.3-26.2 4.2-28.2 6-3.2 2.9-2.5 6.1 2.3 10.8 5.3 5.2 8.8 9.8 12 15.9l2.5 4.8-2.9 10.7c-8 29.6-10.5 54.2-6.2 61.6 1.3 2.1 2.8 3.3 4.6 3.5 2.3.3 3-.2 4.1-3 .7-1.8 1.6-7.8 1.9-13.3.4-6.4 1.9-14.8 4.1-23.5 5.5-21.6 18.9-59.2 22.3-62.5 1.9-2 36.7-1.4 43.3.7 6 1.9 6.2 4.8.6 6.3-4.7 1.4-5.3 2.5-2.7 4.9 2.9 2.6 6.9 2.3 10-.8 2.1-2.1 2.6-3.5 2.5-7.4-.1-8.2-4.5-12.1-15.4-13.7-9.1-1.3-10.8-1.5-24.3-2-7.7-.3-14.7-1-15.7-1.5-2.6-1.4-5.6-1.2-6.9.4zm-13.3 22.9c-1.3 3.6-2.7 6.7-3.2 6.7-.4.1-2.5-2.5-4.6-5.7-3-4.4-3.5-6-2.5-6.5 1.8-1.1 11.9-2.5 12.3-1.8.1.3-.8 3.6-2 7.3zM323 450.2c-1.1.4-2 1.3-2 2 0 .9-.3 1-.8.2-.8-1.3-3.1-1.2-18.2.5-5.8.7-12.7 1-15.5.8-2.7-.2-6.3 0-8 .5-1.6.5-4.8 1.1-7 1.3-2.2.3-5.1.7-6.5 1-2.7.7-5.9 1.1-13.5 2-2.7.3-7.2 1-10 1.6-2.7.6-7 1.2-9.5 1.5-2.5.3-5.4.7-6.6.9-1.1.3-4.4.7-7.3 1.1-5.3.6-10.5 2.6-9.6 3.6.3.3-.6.3-2 0-1.4-.2-5.1 0-8.3.6-3.1.7-7.3 1.4-9.2 1.7-1.9.3-6.2 1.2-9.5 2s-7.1 1.7-8.5 1.9c-1.4.3-5 1.3-8 2.1s-6.4 1.7-7.5 1.9c-1.1.2-4 .9-6.5 1.5s-8.5 2-13.5 3.2c-4.9 1.1-11.9 2.9-15.5 4-3.6 1-12.3 3.5-19.5 5.5-7.1 2-14.9 4.2-17.3 5-2.4.8-4.8 1.2-5.3.9-.5-.4-.9-.1-.9.5 0 2.8 4.7 2.6 17-.7 6.9-1.9 15.4-4.1 19-5 3.6-.8 11-2.9 16.5-4.5s12.3-3.4 15-4c2.8-.6 6.4-1.7 8-2.4 1.7-.7 3.7-1.2 4.5-1.1 2.2.2 9-1.4 9-2.2 0-.3 2-.7 4.4-.7 2.5-.1 5.3-.5 6.3-.9s4-1 6.8-1.2c2.7-.2 5.4-.8 6-1.3.5-.4 2.9-.8 5.3-.8 2.4-.1 4.9-.5 5.6-1.1.7-.6 3.2-1.3 5.7-1.6 2.4-.3 5.5-.7 6.9-1 1.4-.3 6.3-1 10.9-1.5 4.7-.6 8.7-1.3 9.1-1.5.3-.2 2.9-.7 5.6-1.1 2.7-.3 5.4-1 6.1-1.5.7-.7 1.3-.5 1.5.3.4 1.1.8 1 2.1 0 .9-.8 2.5-1.1 3.5-.8 1.1.4 3.1.2 4.5-.3s4.5-1.2 6.8-1.6c2.4-.3 5.2-.8 6.1-1.1.9-.3 5-.7 9-1 8.6-.5 11.3-.8 19.3-2.3 7.8-1.3 17.3-2.2 25.7-2.4 3.6-.1 6.5-.4 6.3-.7-.2-.3 4.3-.5 9.8-.5 5.6 0 12.3-.2 14.9-.5 2.6-.4 4.5-.3 4.2.2-.3.4.2.8 1.1.8.9 0 1.4-.4 1-.9-.3-.5-.1-1.2.5-1.6.5-.3 1 0 1 .7 0 1 2.1 1.3 8.5 1.3 4.6 0 8.7-.4 9.1-.8.4-.4 1.3-.2 1.9.3.8.7 2.2.5 4.4-.6 1.7-.8 3.7-1.3 4.4-1.1.6.3-.3.8-2 1.2-1.8.4-3.3 1.1-3.3 1.6 0 1.5 4.5 1.4 5.8-.1.8-.8 1.1-.9.7-.3-.3.7-.1 1.3.4 1.3.6 0 1.1-.5 1.1-1.1 0-.8.4-.8 1.3-.1.6.5 3.1 1.2 5.5 1.4 3.2.3 4.1 0 3.7-1-.3-1 .3-1.2 2.3-1 1.6.2 2.6.8 2.4 1.6-.2 1 1.1 1.2 5 .8 4.9-.4 12.1.5 15.8 2.1 2.7 1.1 4.4 1.2 5.6.2 1.2-1 7.6-.1 7 1-.3.4.5.8 1.7.8 1.7.2 1.8 0 .7-.7-.8-.5-1.2-1.2-.8-1.5.3-.4 1.5.3 2.6 1.5 1.4 1.5 3.3 2.2 6.4 2.3 2.3.1 4.6.5 4.9 1 .3.4 2.2.8 4.2.9 2 .1 3.4.5 3.2.9-.6.9 2.2.6 3.1-.3.7-.8-9-3.8-12.3-3.8-1.3 0-2.3-.5-2.3-1.1 0-.5-.4-.8-1-.4-.5.3-1.7.1-2.7-.5-1.7-.9-16-3.7-22.8-4.5-1.7-.2-4.8-.8-7-1.4-2.2-.5-9.6-1.3-16.5-1.6-18.7-.9-77.8-1.1-80-.3zM468.5 466c-.7 1.2 5.5 2.1 7.3 1.1 1.4-.8 1.3-1-.8-1.5-3.2-.6-6-.5-6.5.4zM478 468c0 .5 1 1 2.3 1 1.8 0 1.9-.2.7-1-1.9-1.3-3-1.3-3 0zM484 469.5c.5.7.7 1.4.4 1.7-.2.3.2.8 1.1 1.2 1.2.4 1.4.2.6-1.3-.6-1-.8-2-.6-2.3.3-.3-.2-.5-1-.5-1 0-1.2.4-.5 1.2zM492 474.4c0 .2.7.9 1.5 1.6 1.3 1.1 1.4 1 .9-.4-.5-1.4-2.4-2.3-2.4-1.2zM503 478.9c0 .5.7 1.2 1.6 1.5 1.4.5 1.5.4.4-.9-1.4-1.7-2-1.9-2-.6zM514 487.4c0 .2.8 1 1.8 1.7 1.5 1.3 1.6 1.2.3-.4s-2.1-2.1-2.1-1.3z"/></svg>